# xmcd
#
# Track frame offsets: 
#        150
#        26743
#        42061
#        61646
#        84029
#        104072
#        116792
#        153500
#        170204
#        196633
#
# Disc length: 2903 seconds
#
# Revision: 0
# Processed by: cddbd v1.5.2PL0 Copyright (c) Steve Scherf et al.
# Submitted via: ExactAudioCopy v0.90b4
#
DISCID=790b550a
DTITLE=Frank Solivan and Dirty Kitchen - Cold Spell
DYEAR=2014
DGENRE=Bluegrass
TTITLE0=Say It Isn't So
TTITLE1=No Life In This Town
TTITLE2=She Said She Will
TTITLE3=Cold Spell
TTITLE4=Yeah Man
TTITLE5=Better (Days Go By)
TTITLE6=Country Song
TTITLE7=Betrayal
TTITLE8=Chief Taghkanic
TTITLE9=Missing You
EXTD=
EXTT0=
EXTT1=
EXTT2=
EXTT3=
EXTT4=
EXTT5=
EXTT6=
EXTT7=
EXTT8=
EXTT9=
PLAYORDER=
